# xmcd
#
# Track frame offsets:
#	150
#	19709
#	36667
#	52227
#	75594
#	94492
#	112038
#	134545
#	163477
#	178946
#	197844
#	217493
#	239302
#	262491
#	282512
#
# Disc length: 3988
#
# Revision: 1
# Processed by: cddbd v1.5.1PL0 Copyright (c) Steve Scherf et al.
# Submitted via: CDex 1.51
# Normalized: r0:TDELIM( - )
#
DISCID=030f920f
DTITLE=Various Artist - All That Smooth Jazz
DYEAR=2004
DGENRE=Jazz
TTITLE0=Deep Into It - Larry Carlton
TTITLE1=From The Start - Steve Cole
TTITLE2=Warm Weather - Pieces Of A Dream
TTITLE3=Soul Food To Go (Sina) - Manhattan Transfer feat. Djavan
TTITLE4=Rio De Janeiro Blue - Randy Crawford
TTITLE5=The Seduction - David Sanborn
TTITLE6=You Show Me - Michael McDonald
TTITLE7=Robo Bop - Fourplay
TTITLE8=Simply Said - Kenny Garret
TTITLE9=Smooth Temptation - Ibizarre Feat. Ram
TTITLE10=Real Love - Kirk Whalum Feat. Booney James
TTITLE11=Out'a Nowhere - Norman Brown
TTITLE12=My, My, My - Gerald Albright
TTITLE13=If You Really Need Me Now - Patti Austin Feat. Booney James
TTITLE14=Use Me - Rick Braun
EXTD=YEAR: 2004
EXTT0=
EXTT1=
EXTT2=
EXTT3=
EXTT4=
EXTT5=
EXTT6=
EXTT7=
EXTT8=
EXTT9=
EXTT10=
EXTT11=
EXTT12=
EXTT13=
EXTT14=
PLAYORDER=
